<svg width="19" height="24" viewBox="0 0 19 24" fill="none" xmlns="http://www.w3.org/2000/svg">
<path d="M18.1861 6.80816C18.1763 6.38204 17.9363 6.15184 17.9314 6.14694C17.8482 6.05388 15.8939 3.8351 17.9216 1.68C18.338 1.23918 18.3673 0.102857 17.1918 0H3.91347C1.79265 0 0.0587754 1.69959 0.00489789 3.81061C0.00489789 3.82531 0 19.8808 0 19.8808C0 22.1535 1.84653 24 4.11918 24H17.1771C17.7306 24 18.1763 23.5543 18.1763 23.0008V6.81306C18.1861 6.81306 18.1861 6.81306 18.1861 6.80816ZM3.91347 1.99347H15.3502C14.782 3.37469 14.9731 4.73633 15.4139 5.81388H3.91347C2.86041 5.81388 2.00327 4.95673 2.00327 3.90367C2.00327 2.85061 2.86041 1.99347 3.91347 1.99347ZM4.12898 21.9967C2.95837 21.9967 2.00816 21.0465 2.00816 19.8759V7.31755C2.57143 7.63592 3.22286 7.81714 3.91837 7.81714H16.1878V21.9967H4.12898Z" fill="#686777"/>
</svg>
