<svg width="30" height="18" viewBox="0 0 30 18" fill="none" xmlns="http://www.w3.org/2000/svg">
<path d="M25.4355 8.29124H25.0866C23.783 8.29124 22.5132 7.83198 21.5111 6.99796L14.6081 1.25255C14.0868 0.818721 13.4263 0.579834 12.7481 0.579834C11.1449 0.579834 9.84064 1.88413 9.84064 3.48731V4.16618C9.84064 5.48876 8.76463 6.56483 7.44199 6.56483C6.51363 6.56483 5.66033 6.02114 5.26805 5.17974L5.07697 4.76987C4.64139 3.83565 3.69393 3.23202 2.6632 3.23202C1.19473 3.23202 0 4.42669 0 5.89522V12.8557C0 15.3725 2.04762 17.4201 4.56445 17.4201H25.4355C27.9524 17.4201 30 15.3725 30 12.8557C30 10.3389 27.9524 8.29124 25.4355 8.29124ZM25.4355 15.6623H4.56445C3.51979 15.6623 2.60725 15.0882 2.12402 14.2393H27.876C27.3928 15.0882 26.4802 15.6623 25.4355 15.6623ZM1.75781 12.4816V5.89522C1.75781 5.39595 2.16398 4.98983 2.6632 4.98983C3.01359 4.98983 3.33574 5.19509 3.48381 5.51267L3.67488 5.92247C4.35463 7.38052 5.8333 8.32265 7.44205 8.32265C9.73395 8.32265 11.5985 6.45808 11.5985 4.16618V3.48731C11.5985 2.85339 12.1143 2.33765 12.7482 2.33765C13.0163 2.33765 13.2775 2.4321 13.4837 2.60366L15.1771 4.01313L13.2476 5.94263L14.4905 7.18558L16.5338 5.14235L17.2973 5.77786L15.4549 7.62028L16.6979 8.86323L18.6541 6.90708L19.4176 7.54259L17.6623 9.29794L18.9052 10.5409L20.787 8.65915C22.0341 9.55856 23.5423 10.0492 25.0867 10.0492H25.4357C26.8563 10.0492 28.033 11.1104 28.2166 12.4816H1.75781Z" fill="#686777"/>
</svg>
