<svg width="27" height="24" viewBox="0 0 27 24" fill="none" xmlns="http://www.w3.org/2000/svg">
<path d="M26.25 5.66699H23.1504L21.5668 1.16777L21.0984 1.00627C20.9705 0.962051 17.9084 -0.0751953 13.2275 -0.0751953C8.55704 -0.0751953 5.3072 0.955803 5.17101 0.999702L4.68571 1.15639L3.11158 5.66699H0V7.71777H2.35519L0.962104 9.90666C0.332611 10.8955 0 12.0379 0 13.21V20.0225C0 21.7188 1.37979 23.0986 3.07617 23.0986C4.77255 23.0986 6.15234 21.7188 6.15234 20.0225V19.5098H20.0976V20.0225C20.0976 21.7188 21.4774 23.0986 23.1738 23.0986C24.8702 23.0986 26.25 21.7188 26.25 20.0225V13.2017C26.25 12.0361 25.9207 10.8992 25.298 9.91387L23.9094 7.71777H26.25V5.66699ZM6.27859 2.81657C7.2995 2.54884 9.87611 1.97559 13.2275 1.97559C16.5395 1.97559 18.9963 2.54195 19.9704 2.80904L21.301 6.58984H4.96177L6.27859 2.81657ZM4.10156 20.0225C4.10156 20.5879 3.64158 21.0479 3.07617 21.0479C2.51076 21.0479 2.05078 20.5879 2.05078 20.0225V19.5098H4.10156V20.0225ZM15.9448 17.459H10.3052V14.3828H15.9448V17.459ZM23.1738 21.0479C22.6084 21.0479 22.1484 20.5879 22.1484 20.0225V19.5098H24.1992V20.0225C24.1992 20.5879 23.7392 21.0479 23.1738 21.0479ZM24.1992 17.459H17.9956V12.332H8.25439V17.459H2.05078V13.21C2.05078 12.4286 2.27252 11.667 2.69229 11.0077L4.19865 8.64062H22.0666L23.5644 11.0099C23.9797 11.6666 24.1992 12.4246 24.1992 13.2017V17.459ZM6.66504 13.3574C6.66504 13.9238 6.20601 14.3828 5.63965 14.3828C5.45251 14.3828 4.80139 14.3828 4.61426 14.3828C4.04789 14.3828 3.58887 13.9238 3.58887 13.3574C3.58887 12.7911 4.04789 12.332 4.61426 12.332H5.63965C6.20601 12.332 6.66504 12.7911 6.66504 13.3574ZM22.6611 13.3574C22.6611 13.9238 22.2021 14.3828 21.6357 14.3828C21.4486 14.3828 20.7975 14.3828 20.6103 14.3828C20.044 14.3828 19.585 13.9238 19.585 13.3574C19.585 12.7911 20.044 12.332 20.6103 12.332H21.6357C22.2021 12.332 22.6611 12.7911 22.6611 13.3574Z" fill="#686777"/>
</svg>
