<svg width="25" height="25" viewBox="0 0 25 25" fill="none" xmlns="http://www.w3.org/2000/svg">
<g clip-path="url(#clip0_576_5787)">
<path d="M10.3145 0.0507812H4.68945C2.6217 0.0507812 0.939453 1.73303 0.939453 3.80078C0.939453 3.97145 0.951078 4.14325 0.974516 4.31495L2.81445 17.4883V21.2383C2.81445 22.7891 4.07614 24.0508 5.62691 24.0508H9.377C10.9278 24.0508 12.1895 22.7891 12.1895 21.2383L12.1895 17.4883C12.1895 17.2397 12.0907 17.0012 11.915 16.8254C11.7391 16.6496 11.5007 16.5508 11.252 16.5508H4.58563L2.8318 4.05789C2.82031 3.97352 2.81445 3.88698 2.81445 3.80078C2.81445 2.76691 3.65558 1.92578 4.68945 1.92578H10.3145C11.3483 1.92578 12.1895 2.76691 12.1895 3.80078C12.1895 3.88614 12.1837 3.97178 12.1724 4.05536L10.8179 13.6067C10.7452 14.1193 11.1019 14.5938 11.6144 14.6665C12.1273 14.7392 12.6016 14.3826 12.6743 13.8699C12.6743 13.8699 14.0297 4.31298 14.0299 4.31134C14.0528 4.14325 14.0645 3.97145 14.0645 3.80078C14.0645 1.73303 12.3822 0.0507812 10.3145 0.0507812ZM4.68945 18.4258H6.56445V19.3633C6.56445 19.8811 6.98417 20.3008 7.50195 20.3008C8.01973 20.3008 8.43945 19.8811 8.43945 19.3633V18.4258H10.3145L10.3145 21.2383C10.3145 21.7552 9.89389 22.1758 9.377 22.1758H5.62695C5.11002 22.1758 4.68945 21.7552 4.68945 21.2383V18.4258Z" fill="#686777"/>
<path d="M24.002 11.3008H16.502C15.9842 11.3008 15.5645 11.7205 15.5645 12.2383V21.2383C15.5645 22.7891 16.8261 24.0508 18.377 24.0508H22.127C23.6778 24.0508 24.9395 22.7891 24.9395 21.2383V12.2383C24.9395 11.7205 24.5197 11.3008 24.002 11.3008ZM23.0645 21.2383C23.0645 21.7552 22.6439 22.1758 22.127 22.1758H18.377C17.86 22.1758 17.4395 21.7552 17.4395 21.2383V13.1758H23.0645V21.2383Z" fill="#686777"/>
<path d="M22.127 9.42578C21.6092 9.42578 21.1895 9.00606 21.1895 8.48828V4.73828C21.1895 3.51602 20.4058 2.47337 19.3145 2.08642V8.48828C19.3145 9.00606 18.8947 9.42578 18.377 9.42578C17.8592 9.42578 17.4395 9.00606 17.4395 8.48828V0.988281C17.4395 0.4705 17.8592 0.0507812 18.377 0.0507812C20.9617 0.0507812 23.0645 2.15359 23.0645 4.73828V8.48828C23.0645 9.00606 22.6447 9.42578 22.127 9.42578Z" fill="#686777"/>
</g>
<defs>
<clipPath id="clip0_576_5787">
<rect width="24" height="24" fill="white" transform="translate(0.939453 0.0507812)"/>
</clipPath>
</defs>
</svg>
