<svg width="24" height="24" viewBox="0 0 24 24" fill="none" xmlns="http://www.w3.org/2000/svg">
<path d="M2.70615 23.3892C2.43322 23.3019 2.14734 23.2425 1.89013 23.1226C0.705889 22.569 0.0369763 21.6281 0.0193977 20.3175C-0.0148343 17.909 0.00551986 15.4996 0.011071 13.091C0.0129214 12.4585 0.444985 12.0284 1.07782 12.0071C1.39886 11.9959 1.7199 12.0052 2.08535 12.0052C2.08535 11.786 2.08535 11.5937 2.08535 11.4005C2.08535 10.52 2.08165 9.64036 2.0872 8.75981C2.09183 8.09569 2.49613 7.68049 3.15857 7.64984C3.37691 7.63962 3.59711 7.64612 3.81638 7.64612C4.02177 7.64612 4.22717 7.64612 4.45291 7.64612C4.48992 7.29873 4.50195 6.97642 4.56116 6.66433C4.90903 4.84378 6.45317 3.54525 8.29893 3.50902C8.56446 3.50345 8.82999 3.51088 9.09459 3.50438C10.1863 3.47744 10.9616 2.54209 10.8469 1.44976C10.8136 1.13302 10.8525 0.772627 10.9783 0.485612C11.1522 0.088993 11.6268 -0.0837729 12.0783 0.0388353C14.0777 0.581284 15.9586 1.37824 17.537 2.76687C18.8961 3.9623 19.6954 5.43081 19.6334 7.29502C19.6307 7.37582 19.639 7.45663 19.6464 7.53745C19.6482 7.55881 19.6649 7.57831 19.6973 7.64612C20.0276 7.64612 20.3819 7.64055 20.7353 7.64705C21.5356 7.66284 21.915 8.05017 21.9187 8.85641C21.9224 9.88651 21.9196 10.9166 21.9196 12.0052C22.2406 12.0052 22.5358 12.0024 22.83 12.0061C23.5785 12.0145 23.992 12.4167 23.9929 13.1663C23.9985 15.5061 24.0068 17.8458 23.9902 20.1847C23.9791 21.8269 23.0335 22.9629 21.42 23.3391C21.3895 23.3465 21.3626 23.3734 21.3339 23.3911C15.1259 23.3892 8.91603 23.3892 2.70615 23.3892ZM21.9029 14.1137C15.2841 14.1137 8.69306 14.1137 2.08535 14.1137C2.08535 14.2698 2.08535 14.3961 2.08535 14.5233C2.08535 16.3652 2.0872 18.2072 2.08535 20.0491C2.08442 20.9045 2.47578 21.303 3.3288 21.303C9.1094 21.303 14.8909 21.303 20.6715 21.303C21.531 21.303 21.9196 20.9185 21.9205 20.0565C21.9224 18.1914 21.9214 16.3262 21.9205 14.4611C21.9196 14.3487 21.9094 14.2363 21.9029 14.1137ZM19.8333 9.76204C14.5939 9.76204 9.3888 9.76204 4.17998 9.76204C4.17998 10.5181 4.17998 11.2426 4.17998 11.9755C9.40638 11.9755 14.6134 11.9755 19.8333 11.9755C19.8333 11.2306 19.8333 10.5135 19.8333 9.76204ZM17.5277 7.62754C17.6665 6.52778 17.3676 5.60544 16.6516 4.81313C15.6968 3.75702 14.4838 3.10869 13.1867 2.59039C13.0859 2.55045 12.9822 2.51887 12.8786 2.48357C12.8518 2.55138 12.8361 2.58203 12.8268 2.61454C12.3559 4.28647 11.2642 5.27477 9.55997 5.55156C9.1427 5.61937 8.70879 5.57664 8.28228 5.59429C7.21461 5.6398 6.40044 6.62346 6.61323 7.62754C10.2391 7.62754 13.8695 7.62754 17.5277 7.62754Z" fill="#686777"/>
</svg>
