<svg width="28" height="28" viewBox="0 0 28 28" fill="none" xmlns="http://www.w3.org/2000/svg">
<path d="M28 19.3725V2.17402C28 0.9949 27.0407 0.0356445 25.8616 0.0356445H2.13838C0.959255 0.0356445 0 0.9949 0 2.17402V19.3725C0 20.5516 0.959255 21.5108 2.13838 21.5108H21.1276L23.5506 26.6311C23.9482 27.4714 24.7868 27.9643 25.6601 27.9641C25.9936 27.9641 26.3322 27.8922 26.6531 27.7404C27.8142 27.1909 28.3119 25.7991 27.7624 24.6379L26.2643 21.4722C27.2515 21.2833 28 20.4139 28 19.3725ZM1.64491 19.3725V2.17402C1.64491 1.9019 1.86631 1.68055 2.13838 1.68055H6.46997V19.8659H2.13838C1.86631 19.8659 1.64491 19.6446 1.64491 19.3725ZM25.2139 23.0979L23.9757 23.6838L17.0541 9.05725L17.0609 7.47052L18.2922 8.47139L25.2139 23.0979ZM25.9495 26.2536C25.6082 26.4151 25.199 26.2688 25.0375 25.9275L24.6793 25.1706L25.9175 24.5847L26.2756 25.3415C26.4372 25.6829 26.2908 26.0921 25.9495 26.2536ZM26.3551 19.3725C26.3551 19.6446 26.1337 19.8659 25.8616 19.8659H25.5042L20.8962 10.1285C22.4005 9.40378 23.4125 7.86003 23.4125 6.13189V4.16623H21.7676V6.13195C21.7676 7.21632 21.1346 8.18523 20.1929 8.6423L19.6194 7.43033L15.4308 4.02581L15.4097 8.92006H15.1007C13.441 8.92006 11.9399 9.81281 11.1835 11.25C10.8309 11.9197 10.6558 12.6764 10.677 13.4384C10.7421 15.7759 12.6236 17.6669 14.9604 17.7434C15.0105 17.745 15.0605 17.7459 15.1104 17.7459C15.6717 17.7459 16.2188 17.6419 16.7386 17.4363L16.1336 15.9068C15.7783 16.0473 15.4016 16.1124 15.0142 16.0994C13.5451 16.0513 12.3622 14.8623 12.3213 13.3927C12.3079 12.9125 12.4178 12.4365 12.639 12.0162C13.1102 11.1211 14.0534 10.565 15.1007 10.565H15.9477L20.3491 19.866H8.11488V1.68055H25.8616C26.1337 1.68055 26.3551 1.9019 26.3551 2.17402V19.3725Z" fill="#686777"/>
</svg>
