<svg width="24" height="24" viewBox="0 0 24 24" fill="none" xmlns="http://www.w3.org/2000/svg">
<path d="M12 23.9722C5.38162 23.9722 0 18.624 0 12.0056C0 5.38723 5.38162 0.00561523 12 0.00561523C18.6184 0.00561523 24 5.38723 24 12.0056C23.9666 18.624 18.6184 23.9722 12 23.9722Z" fill="#1877F2"/>
<path d="M10.1614 19.2252H13.0695V11.9383H15.1085L15.309 9.49823H13.0695C13.0695 9.49823 13.0695 8.59572 13.0695 8.09433C13.0695 7.52608 13.1698 7.2921 13.738 7.2921C14.1725 7.2921 15.309 7.2921 15.309 7.2921V4.75171C15.309 4.75171 13.6377 4.75171 13.3035 4.75171C11.1308 4.75171 10.1614 5.72107 10.1614 7.52608C10.1614 9.13054 10.1614 9.4648 10.1614 9.4648H8.65723V11.9383H10.1614V19.2252Z" fill="white"/>
</svg>
