<svg width="24" height="24" viewBox="0 0 24 24" fill="none" xmlns="http://www.w3.org/2000/svg">
<path d="M23.1975 11.0483L12.8245 0.675293C12.3688 0.219564 11.6305 0.219564 11.1748 0.675293L0.674808 11.1753C0.340987 11.5091 0.241296 12.0104 0.421879 12.4468C0.602461 12.8826 1.028 13.1668 1.49968 13.1668H2.66634V20.1668C2.66634 22.0968 4.23633 23.6668 6.16634 23.6668H17.833C19.763 23.6668 21.333 22.0968 21.333 20.1668V13.1668H22.4997H22.5111C23.1935 13.1771 23.6897 12.6484 23.6897 12.0002C23.6897 11.6071 23.4954 11.2596 23.1975 11.0483ZM13.1663 21.3335H10.833V16.6668H13.1663V21.3335ZM18.9997 12.0002V20.1668C18.9997 20.81 18.4762 21.3335 17.833 21.3335H15.4997V15.5002C15.4997 14.8559 14.9773 14.3335 14.333 14.3335H9.66634C9.02206 14.3335 8.49968 14.8559 8.49968 15.5002V21.3335H6.16634C5.5232 21.3335 4.99968 20.81 4.99968 20.1668V12.0002C4.99968 11.5 4.68466 11.0733 4.2426 10.9076L11.9997 3.1499L19.7568 10.9076C19.3147 11.0733 18.9997 11.5 18.9997 12.0002Z" fill="#686777"/>
</svg>
