<svg width="24" height="24" viewBox="0 0 24 24" fill="none" xmlns="http://www.w3.org/2000/svg">
<path d="M12 23.9666C5.38162 23.9666 0 18.6184 0 12C0 5.38162 5.38162 0 12 0C18.6184 0 24 5.38162 24 12C23.9666 18.6184 18.6184 23.9666 12 23.9666Z" fill="url(#paint0_linear_604_5155)"/>
<path d="M12 6.58447C13.7716 6.58447 13.9721 6.58447 14.6407 6.61789C15.2758 6.65132 15.6435 6.7516 15.8774 6.85188C16.1783 6.98558 16.4123 7.11929 16.6462 7.35327C16.8802 7.58725 17.0139 7.78781 17.1476 8.12207C17.2479 8.35605 17.3482 8.69032 17.3816 9.35884C17.3816 10.0274 17.3816 10.2279 17.3816 11.9995C17.3816 13.7711 17.3816 13.9717 17.3482 14.6402C17.3148 15.2753 17.2145 15.643 17.1142 15.8769C16.9805 16.1778 16.8468 16.4118 16.6128 16.6457C16.3788 16.8797 16.1783 17.0134 15.844 17.1471C15.61 17.2474 15.2758 17.3477 14.6072 17.3811C13.9387 17.3811 13.7382 17.3811 12 17.3811C10.2284 17.3811 10.0279 17.3811 9.35933 17.3477C8.72423 17.3143 8.35654 17.214 8.12256 17.1137C7.82172 16.98 7.58774 16.8463 7.35376 16.6123C7.11977 16.3783 6.98607 16.1778 6.85236 15.8435C6.75209 15.6095 6.65181 15.2753 6.61838 14.6068C6.58496 13.9048 6.58496 13.7042 6.58496 11.9661C6.58496 10.1945 6.58496 9.99394 6.61838 9.32541C6.65181 8.69032 6.75209 8.32263 6.85236 8.08865C6.98607 7.78781 7.11977 7.55383 7.35376 7.31984C7.58774 7.08586 7.7883 6.95215 8.12256 6.81845C8.35654 6.71817 8.69081 6.61789 9.35933 6.58447C10.0279 6.61789 10.2284 6.58447 12 6.58447ZM12 5.41455C10.2284 5.41455 9.99443 5.41455 9.29248 5.44798C8.59053 5.4814 8.12256 5.58168 7.68802 5.74881C7.25348 5.91594 6.88579 6.14993 6.5181 6.51761C6.15041 6.8853 5.91643 7.25299 5.7493 7.68753C5.58217 8.12207 5.48189 8.59004 5.44846 9.29199C5.41504 9.99394 5.41504 10.2279 5.41504 11.9995C5.41504 13.7711 5.41504 14.0051 5.44846 14.707C5.48189 15.409 5.58217 15.8769 5.7493 16.3115C5.91643 16.746 6.15041 17.1137 6.5181 17.4814C6.88579 17.8491 7.25348 18.0831 7.68802 18.2502C8.12256 18.4173 8.59053 18.5176 9.29248 18.551C9.99443 18.5845 10.2284 18.5845 12 18.5845C13.7716 18.5845 14.0056 18.5845 14.7075 18.551C15.4095 18.5176 15.8774 18.4173 16.312 18.2502C16.7465 18.0831 17.1142 17.8491 17.4819 17.4814C17.8496 17.1137 18.0836 16.746 18.2507 16.3115C18.4178 15.8769 18.5181 15.409 18.5515 14.707C18.585 14.0051 18.585 13.7711 18.585 11.9995C18.585 10.2279 18.585 9.99394 18.5515 9.29199C18.5181 8.59004 18.4178 8.12207 18.2507 7.68753C18.0836 7.25299 17.8496 6.8853 17.4819 6.51761C17.1142 6.14993 16.7465 5.91594 16.312 5.74881C15.8774 5.58168 15.4095 5.4814 14.7075 5.44798C14.0056 5.41455 13.7716 5.41455 12 5.41455Z" fill="white"/>
<path d="M12.001 8.62329C10.1292 8.62329 8.625 10.1275 8.625 11.9993C8.625 13.8712 10.1292 15.3754 12.001 15.3754C13.8395 15.3754 15.3771 13.8378 15.3771 11.9993C15.3771 10.1275 13.8395 8.62329 12.001 8.62329ZM12.001 14.172C10.7977 14.172 9.79492 13.2027 9.79492 11.9659C9.79492 10.7626 10.7643 9.75978 12.001 9.75978C13.2044 9.75978 14.2072 10.7291 14.2072 11.9659C14.1737 13.2027 13.2044 14.172 12.001 14.172Z" fill="white"/>
<path d="M16.2783 8.48949C16.2783 8.92403 15.9106 9.29171 15.4761 9.29171C15.0415 9.29171 14.6738 8.92403 14.6738 8.48949C14.6738 8.05494 15.0415 7.68726 15.4761 7.68726C15.944 7.68726 16.2783 8.05494 16.2783 8.48949Z" fill="white"/>
<defs>
<linearGradient id="paint0_linear_604_5155" x1="3.51112" y1="20.4644" x2="20.4644" y2="3.51112" gradientUnits="userSpaceOnUse">
<stop stop-color="#FFD600"/>
<stop offset="0.5" stop-color="#FF0100"/>
<stop offset="1" stop-color="#D800B9"/>
</linearGradient>
</defs>
</svg>
