<svg width="36" height="28" viewBox="0 0 36 28" fill="none" xmlns="http://www.w3.org/2000/svg">
<g clip-path="url(#clip0_604_7940)">
<path d="M35.2679 27.607V27.6799H35.3351C35.3499 27.6799 35.3627 27.6763 35.3719 27.6707C35.3803 27.665 35.3853 27.6551 35.3853 27.6431C35.3853 27.6311 35.3803 27.6219 35.3719 27.6162C35.3627 27.6099 35.3499 27.607 35.3351 27.607H35.2679ZM35.3358 27.5561C35.3704 27.5561 35.3973 27.5639 35.4164 27.5795C35.4355 27.595 35.4447 27.6162 35.4447 27.6431C35.4447 27.6657 35.4376 27.6841 35.4221 27.699C35.4072 27.7131 35.386 27.7223 35.3577 27.7259L35.4468 27.8284H35.3775L35.2948 27.7266H35.2679V27.8284H35.2099V27.5561H35.3358ZM35.3181 27.9225C35.3499 27.9225 35.3796 27.9161 35.4065 27.9041C35.4341 27.892 35.4581 27.8758 35.4787 27.8553C35.4992 27.8348 35.5154 27.8107 35.5275 27.7824C35.5388 27.7548 35.5452 27.7251 35.5452 27.6933C35.5452 27.6615 35.5388 27.6318 35.5275 27.6042C35.5154 27.5766 35.4992 27.5519 35.4787 27.5314C35.4581 27.5109 35.4341 27.4946 35.4065 27.4826C35.3796 27.4713 35.3499 27.4656 35.3181 27.4656C35.2863 27.4656 35.2559 27.4713 35.2283 27.4826C35.2 27.4946 35.1752 27.5109 35.1547 27.5314C35.1342 27.5519 35.1179 27.5766 35.1066 27.6042C35.0946 27.6318 35.0889 27.6615 35.0889 27.6933C35.0889 27.7251 35.0946 27.7548 35.1066 27.7824C35.1179 27.8107 35.1342 27.8348 35.1547 27.8553C35.1752 27.8758 35.2 27.892 35.2283 27.9041C35.2559 27.9161 35.2863 27.9225 35.3181 27.9225ZM35.3181 27.3998C35.3598 27.3998 35.398 27.4076 35.4348 27.4232C35.4709 27.438 35.502 27.4592 35.5296 27.4861C35.5565 27.5123 35.5777 27.5434 35.5932 27.5795C35.6088 27.6148 35.6166 27.653 35.6166 27.6933C35.6166 27.7336 35.6088 27.7718 35.5932 27.8072C35.5777 27.8425 35.5565 27.8737 35.5296 27.9005C35.502 27.9267 35.4709 27.9479 35.4348 27.9635C35.398 27.979 35.3598 27.9868 35.3181 27.9868C35.2757 27.9868 35.2368 27.979 35.2 27.9635C35.1632 27.9479 35.1314 27.9267 35.1045 27.9005C35.0776 27.8737 35.0564 27.8425 35.0408 27.8072C35.0253 27.7718 35.0175 27.7336 35.0175 27.6933C35.0175 27.653 35.0253 27.6148 35.0408 27.5795C35.0564 27.5434 35.0776 27.5123 35.1045 27.4861C35.1314 27.4592 35.1632 27.438 35.2 27.4232C35.2368 27.4076 35.2757 27.3998 35.3181 27.3998ZM7.75971 26.351C7.75971 25.8319 8.09994 25.4055 8.6559 25.4055C9.18711 25.4055 9.54572 25.8135 9.54572 26.351C9.54572 26.8885 9.18711 27.2966 8.6559 27.2966C8.09994 27.2966 7.75971 26.8701 7.75971 26.351ZM10.1512 26.351V24.8743H9.50894V25.2329C9.30523 24.967 8.99613 24.8001 8.57597 24.8001C7.74769 24.8001 7.09835 25.4493 7.09835 26.351C7.09835 27.2534 7.74769 27.9019 8.57597 27.9019C8.99613 27.9019 9.30523 27.735 9.50894 27.4691V27.8277H10.1512V26.351ZM31.855 26.351C31.855 25.8319 32.1952 25.4055 32.7512 25.4055C33.2831 25.4055 33.641 25.8135 33.641 26.351C33.641 26.8885 33.2831 27.2966 32.7512 27.2966C32.1952 27.2966 31.855 26.8701 31.855 26.351ZM34.2472 26.351V23.6883H33.6042V25.2329C33.4005 24.967 33.0914 24.8001 32.6713 24.8001C31.843 24.8001 31.1936 25.4493 31.1936 26.351C31.1936 27.2534 31.843 27.9019 32.6713 27.9019C33.0914 27.9019 33.4005 27.735 33.6042 27.4691V27.8277H34.2472V26.351ZM18.1235 25.375C18.5373 25.375 18.8033 25.6346 18.8712 26.0915H17.3384C17.407 25.665 17.6659 25.375 18.1235 25.375ZM18.1363 24.8001C17.2705 24.8001 16.665 25.4302 16.665 26.351C16.665 27.2902 17.2953 27.9019 18.1794 27.9019C18.6243 27.9019 19.0318 27.7909 19.3904 27.4882L19.0756 27.0123C18.8281 27.2096 18.5126 27.3213 18.2162 27.3213C17.8024 27.3213 17.4254 27.1297 17.3327 26.5978H19.5262C19.5326 26.5179 19.5389 26.4373 19.5389 26.351C19.5326 25.4302 18.9639 24.8001 18.1363 24.8001ZM25.8915 26.351C25.8915 25.8319 26.2317 25.4055 26.7877 25.4055C27.3189 25.4055 27.6775 25.8135 27.6775 26.351C27.6775 26.8885 27.3189 27.2966 26.7877 27.2966C26.2317 27.2966 25.8915 26.8701 25.8915 26.351ZM28.283 26.351V24.8743H27.6407V25.2329C27.4363 24.967 27.1279 24.8001 26.7077 24.8001C25.8794 24.8001 25.2301 25.4493 25.2301 26.351C25.2301 27.2534 25.8794 27.9019 26.7077 27.9019C27.1279 27.9019 27.4363 27.735 27.6407 27.4691V27.8277H28.283V26.351ZM22.2643 26.351C22.2643 27.2471 22.8881 27.9019 23.8402 27.9019C24.2851 27.9019 24.5815 27.8029 24.9026 27.5498L24.5942 27.0307C24.353 27.2039 24.0998 27.2966 23.8211 27.2966C23.3083 27.2902 22.9313 26.9196 22.9313 26.351C22.9313 25.7824 23.3083 25.4118 23.8211 25.4055C24.0998 25.4055 24.353 25.4981 24.5942 25.6714L24.9026 25.1523C24.5815 24.8991 24.2851 24.8001 23.8402 24.8001C22.8881 24.8001 22.2643 25.455 22.2643 26.351ZM30.545 24.8001C30.1744 24.8001 29.9332 24.9733 29.7662 25.2329V24.8743H29.1296V27.8277H29.7726V26.1721C29.7726 25.6834 29.9827 25.4118 30.4028 25.4118C30.533 25.4118 30.6688 25.4302 30.8046 25.4861L31.0027 24.8807C30.8605 24.8248 30.6752 24.8001 30.545 24.8001ZM13.3278 25.1091C13.0187 24.9055 12.5929 24.8001 12.1232 24.8001C11.3749 24.8001 10.8932 25.1586 10.8932 25.7456C10.8932 26.2273 11.2518 26.5243 11.9125 26.6169L12.2159 26.6601C12.5682 26.7096 12.7344 26.8022 12.7344 26.9691C12.7344 27.1976 12.4995 27.3277 12.061 27.3277C11.6161 27.3277 11.295 27.1855 11.0785 27.0186L10.7758 27.5186C11.128 27.7782 11.5729 27.9019 12.0546 27.9019C12.9077 27.9019 13.4021 27.5002 13.4021 26.938C13.4021 26.4189 13.0131 26.1473 12.3701 26.0547L12.0674 26.0108C11.7894 25.9741 11.5666 25.9189 11.5666 25.7209C11.5666 25.5045 11.7767 25.375 12.1289 25.375C12.5059 25.375 12.8709 25.5172 13.0499 25.6282L13.3278 25.1091ZM21.6149 24.8001C21.2443 24.8001 21.0031 24.9733 20.8369 25.2329V24.8743H20.2003V27.8277H20.8425V26.1721C20.8425 25.6834 21.0526 25.4118 21.4728 25.4118C21.6029 25.4118 21.7387 25.4302 21.8745 25.4861L22.0726 24.8807C21.9304 24.8248 21.7451 24.8001 21.6149 24.8001ZM16.1338 24.8743H15.0834V23.9783H14.4341V24.8743H13.835V25.4613H14.4341V26.8086C14.4341 27.4939 14.7001 27.9019 15.4597 27.9019C15.7384 27.9019 16.0596 27.8157 16.2633 27.6735L16.0779 27.1233C15.8863 27.2343 15.6762 27.2902 15.5092 27.2902C15.1881 27.2902 15.0834 27.0922 15.0834 26.7959V25.4613H16.1338V24.8743ZM6.53037 27.8277V25.9741C6.53037 25.276 6.08545 24.8064 5.36822 24.8001C4.99121 24.7937 4.60218 24.9111 4.32986 25.3255C4.12614 24.9981 3.80501 24.8001 3.35374 24.8001C3.03827 24.8001 2.72987 24.8927 2.48867 25.2386V24.8743H1.8457V27.8277H2.49433V26.1905C2.49433 25.6777 2.77867 25.4055 3.21793 25.4055C3.64445 25.4055 3.86019 25.6834 3.86019 26.1841V27.8277H4.50952V26.1905C4.50952 25.6777 4.80589 25.4055 5.23241 25.4055C5.67096 25.4055 5.88103 25.6834 5.88103 26.1841V27.8277H6.53037Z" fill="#393333"/>
<path d="M35.6638 18.0059V17.5745H35.5513L35.4212 17.8708L35.2917 17.5745H35.1785V18.0059H35.2585V17.6805L35.3801 17.9613H35.4629L35.5846 17.6798V18.0059H35.6638ZM34.9501 18.0059V17.648H35.0944V17.5752H34.7266V17.648H34.8709V18.0059H34.9501Z" fill="#F79410"/>
<path d="M22.8747 19.8616H13.1406V2.37061H22.8747V19.8616Z" fill="#FF5F00"/>
<path d="M13.7642 11.1144C13.7642 7.56627 15.4257 4.40569 18.0132 2.3689C16.1211 0.879489 13.7331 -0.00948806 11.1379 -0.00948806C4.994 -0.00948806 0.0136719 4.97076 0.0136719 11.1144C0.0136719 17.258 4.994 22.2383 11.1379 22.2383C13.7331 22.2383 16.1211 21.3493 18.0132 19.8599C15.4257 17.8231 13.7642 14.6625 13.7642 11.1144Z" fill="#EB001B"/>
<path d="M36.0031 11.1144C36.0031 17.258 31.0228 22.2383 24.8789 22.2383C22.2837 22.2383 19.8958 21.3493 18.0029 19.8599C20.5911 17.8231 22.2526 14.6625 22.2526 11.1144C22.2526 7.56627 20.5911 4.40569 18.0029 2.3689C19.8958 0.879489 22.2837 -0.00948806 24.8789 -0.00948806C31.0228 -0.00948806 36.0031 4.97076 36.0031 11.1144Z" fill="#F79E1B"/>
</g>
<defs>
<clipPath id="clip0_604_7940">
<rect width="36" height="28" fill="white"/>
</clipPath>
</defs>
</svg>
