<svg width="24" height="22" viewBox="0 0 24 22" fill="none" xmlns="http://www.w3.org/2000/svg">
<path d="M23.2377 0.259766H15.0957C14.6776 0.259766 14.3375 0.596501 14.3334 1.01456C14.3212 2.25831 13.2995 3.27018 12.0558 3.27018C10.8121 3.27018 9.79033 2.25831 9.77818 1.01461C9.77413 0.596548 9.43402 0.259766 9.01595 0.259766H0.762275C0.341309 0.259766 0 0.601074 0 1.02204V6.76621C0 7.09876 0.215581 7.39295 0.532688 7.49309L3.13167 8.31401C3.99961 8.58815 4.58275 9.38392 4.58275 10.2941V20.9782C4.58275 21.3991 4.92406 21.7404 5.34503 21.7404H18.655C19.076 21.7404 19.4173 21.3991 19.4173 20.9782V10.2941C19.4173 9.38392 20.0004 8.58815 20.8684 8.31401L23.4674 7.49309C23.7845 7.39295 24.0001 7.09876 24.0001 6.76621V1.02204C24 0.601074 23.6587 0.259766 23.2377 0.259766ZM22.4755 6.20761L20.4092 6.86031C18.904 7.33573 17.8927 8.71569 17.8927 10.2942V20.2159H6.10726V10.2941C6.10726 8.71564 5.09595 7.33568 3.59084 6.86026L1.52455 6.20761V1.78432H8.33581C8.4876 2.50371 8.84563 3.16403 9.37942 3.69315C11.5434 5.83795 15.1666 4.67163 15.7758 1.78432H22.4755V6.20761Z" fill="#686777"/>
</svg>
