<svg width="26" height="28" viewBox="0 0 26 28" fill="none" xmlns="http://www.w3.org/2000/svg">
<path fill-rule="evenodd" clip-rule="evenodd" d="M25.4103 19.2309C25.4103 17.7006 24.9498 16.1756 24.0786 14.8206C23.332 13.6596 22.282 12.6214 21.0226 11.7925C21.5866 10.7543 21.903 9.59055 21.903 8.36244C21.903 7.65605 21.7977 6.97117 21.6015 6.31902C22.8122 5.83291 23.6613 4.64674 23.6613 3.27716C23.6613 1.47013 22.1912 0 20.3842 0C19.216 0 18.1651 0.611627 17.5811 1.57894C16.2419 0.861565 14.6743 0.448315 13 0.448315C11.2797 0.448315 9.67222 0.884724 8.3092 1.63885C7.72947 0.641012 6.6485 5.46193e-05 5.47314 5.46193e-05C3.66611 5.46193e-05 2.19598 1.47019 2.19598 3.27721C2.19598 4.13567 2.52725 4.94791 3.12882 5.56434C3.48609 5.93046 3.91502 6.20219 4.38381 6.36768C4.19691 7.0052 4.09717 7.67369 4.09717 8.36249C4.09717 9.59061 4.41353 10.7543 4.97758 11.7926C3.71817 12.6214 2.66816 13.6596 1.92157 14.8207C1.05034 16.1756 0.589844 17.7006 0.589844 19.231C0.589844 20.5007 0.896313 21.7376 1.49964 22.9085C1.41978 23.2273 1.3768 23.5605 1.3768 23.9036C1.3768 26.1624 3.21447 28 5.47325 28C7.20534 28 8.68875 26.9189 9.28683 25.3965C10.4461 25.8996 11.7139 26.1627 13.0001 26.1627C14.2958 26.1627 15.567 25.8961 16.731 25.3876C17.3268 26.9147 18.8126 28 20.5481 28C22.8069 28 24.6445 26.1623 24.6445 23.9035C24.6445 23.5504 24.5996 23.2075 24.5151 22.8804C25.109 21.7186 25.4103 20.492 25.4103 19.2309ZM23.7717 19.2309C23.7717 19.8517 23.678 20.4636 23.4937 21.0612C22.9763 20.5252 22.3153 20.1289 21.5725 19.9369C21.7554 19.2697 21.8484 18.583 21.8484 17.8867C21.8484 16.2711 21.3354 14.6871 20.3897 13.3432C22.5215 14.8477 23.7717 17.0016 23.7717 19.2309ZM20.3842 1.63863C21.2877 1.63863 22.0228 2.3737 22.0228 3.27721C22.0228 3.97612 21.5808 4.57978 20.9558 4.81295C20.4546 3.92888 19.7725 3.13925 18.9527 2.48278C19.2378 1.96793 19.7792 1.63863 20.3842 1.63863ZM20.2644 8.36249C20.2644 10.6086 18.8911 12.5825 16.832 13.6915C17.0713 13.1635 17.2058 12.5782 17.2058 11.9617C17.2058 9.64266 15.3191 7.756 13.0001 7.756C10.681 7.756 8.79438 9.64266 8.79438 11.9617C8.79438 12.5782 8.9288 13.1635 9.16814 13.6915C7.10905 12.5825 5.7357 10.6086 5.7357 8.36249C5.7357 4.90214 8.99451 2.08695 13.0001 2.08695C17.0056 2.08695 20.2644 4.90214 20.2644 8.36249ZM11.865 9.65997C11.9417 10.2181 12.4214 10.6508 13.0001 10.6508C13.5788 10.6508 14.0584 10.2181 14.1352 9.65992C14.9828 10.0796 15.5672 10.9535 15.5672 11.9616C15.5672 13.3771 14.4156 14.5287 13.0001 14.5287C11.5846 14.5287 10.433 13.3771 10.433 11.9616C10.433 10.9535 11.0173 10.0797 11.865 9.65997ZM3.83456 3.27721C3.83456 2.3737 4.56963 1.63863 5.47314 1.63863C6.10083 1.63863 6.67449 2.00529 6.94699 2.56476C6.16014 3.21435 5.50537 3.98852 5.02264 4.85178C4.33968 4.65335 3.83456 4.01665 3.83456 3.27721ZM2.22832 19.2309C2.22832 17.0014 3.47872 14.8474 5.61067 13.3428C4.66456 14.6869 4.15168 16.2689 4.15168 17.8867C4.15168 18.5855 4.24481 19.2739 4.42871 19.9426C3.68632 20.1385 3.02647 20.5384 2.51141 21.078C2.32352 20.4748 2.22832 19.857 2.22832 19.2309ZM5.47314 26.3615C4.11787 26.3615 3.01527 25.2589 3.01527 23.9036C3.01527 22.5483 4.11787 21.4457 5.47314 21.4457C6.82841 21.4457 7.93101 22.5483 7.93101 23.9036C7.93101 25.2589 6.82841 26.3615 5.47314 26.3615ZM9.5649 23.7177C9.47701 21.7614 8.01098 20.1582 6.1165 19.8581C5.90016 19.2218 5.79032 18.5603 5.79032 17.8866C5.79032 16.5777 6.21815 15.2945 7.00582 14.2088C8.58896 15.4927 10.6934 16.2766 13.0001 16.2766C15.3068 16.2766 17.4112 15.4927 18.9944 14.2089C19.7817 15.2944 20.2098 16.5793 20.2098 17.8867C20.2098 18.5612 20.0996 19.2245 19.8823 19.8621C18.0023 20.1708 16.549 21.7632 16.4567 23.7069C15.3991 24.2423 14.2134 24.5241 13.0001 24.5241C11.7975 24.5241 10.6165 24.2456 9.5649 23.7177ZM20.5481 26.3615C19.1928 26.3615 18.0902 25.2589 18.0902 23.9036C18.0902 22.5483 19.1928 21.4457 20.5481 21.4457C21.9034 21.4457 23.006 22.5483 23.006 23.9036C23.006 25.2589 21.9034 26.3615 20.5481 26.3615Z" fill="#686777"/>
</svg>
