<svg width="24" height="24" viewBox="0 0 24 24" fill="none" xmlns="http://www.w3.org/2000/svg">
<path d="M12 23.9666C5.38162 23.9666 0 18.6184 0 12C0 5.38162 5.38162 0 12 0C18.6184 0 24 5.38162 24 12C23.9666 18.6184 18.6184 23.9666 12 23.9666Z" fill="#1DA1F2"/>
<path d="M5.61621 16.0115C6.78613 16.7469 8.1566 17.1814 9.62735 17.1814C14.5076 17.1814 17.2485 13.07 17.0814 9.39313C17.5828 9.02544 18.0508 8.55748 18.385 8.02266C17.917 8.22321 17.4157 8.35692 16.8808 8.42377C17.4157 8.08951 17.8502 7.58812 18.0173 6.98645C17.5159 7.28728 16.9477 7.52126 16.346 7.62154C15.8781 7.12015 15.1761 6.78589 14.4407 6.78589C12.736 6.78589 11.4992 8.35692 11.9003 9.9948C9.72763 9.89452 7.78891 8.85831 6.48529 7.25386C5.78334 8.42377 6.1176 9.96138 7.28752 10.7636C6.85298 10.7636 6.45187 10.6299 6.08418 10.4293C6.05075 11.6327 6.91983 12.7692 8.19003 13.0366C7.82234 13.1369 7.42123 13.1703 7.02011 13.07C7.35437 14.1062 8.32373 14.875 9.46022 14.875C8.39058 15.7775 6.98668 16.1786 5.61621 16.0115Z" fill="white"/>
</svg>
