<svg width="52" height="16" viewBox="0 0 52 16" fill="none" xmlns="http://www.w3.org/2000/svg">
<g clip-path="url(#clip0_604_7933)">
<path d="M22.5337 15.7692H18.3213L20.956 0.280762H25.1681L22.5337 15.7692Z" fill="#00579F"/>
<path d="M37.8039 0.659404C36.9731 0.346017 35.6552 0 34.0258 0C29.8659 0 26.9366 2.10895 26.9186 5.12412C26.8841 7.3487 29.0159 8.58429 30.6104 9.32603C32.2401 10.084 32.7941 10.5787 32.7941 11.2543C32.7775 12.2919 31.4772 12.7702 30.2644 12.7702C28.5826 12.7702 27.6815 12.5236 26.3121 11.9463L25.7574 11.6989L25.168 15.1757C26.1559 15.6036 27.9761 15.9834 29.8659 16C34.2858 16 37.1633 13.9237 37.1974 10.7105C37.2142 8.94739 36.0885 7.59639 33.6616 6.49242C32.1883 5.78374 31.286 5.30589 31.286 4.58078C31.3033 3.9216 32.0491 3.24643 33.7123 3.24643C35.0817 3.21336 36.0878 3.52631 36.8501 3.83947L37.2311 4.00394L37.8039 0.659404Z" fill="#00579F"/>
<path d="M43.402 10.2822C43.7489 9.39239 45.0838 5.94865 45.0838 5.94865C45.0662 5.98172 45.43 5.04244 45.638 4.46581L45.9324 5.80039C45.9324 5.80039 46.73 9.50781 46.9033 10.2822C46.2449 10.2822 44.234 10.2822 43.402 10.2822ZM48.6016 0.280762H45.3434C44.3386 0.280762 43.5752 0.560641 43.1417 1.56584L36.8848 15.769H41.3047C41.3047 15.769 42.0323 13.8573 42.1887 13.4456C42.6736 13.4456 46.9733 13.4456 47.5971 13.4456C47.718 13.9894 48.0997 15.769 48.0997 15.769H51.9999L48.6016 0.280762Z" fill="#00579F"/>
<path d="M14.8023 0.280762L10.677 10.8424L10.2262 8.70036C9.46354 6.22875 7.07161 3.5434 4.40234 2.20816L8.18096 15.7528H12.6354L19.2565 0.280762H14.8023Z" fill="#00579F"/>
<path d="M6.84662 0.280762H0.0693343L0 0.59371C5.2867 1.87901 8.78799 4.97717 10.2265 8.70101L8.7532 1.5827C8.51065 0.593491 7.76524 0.313392 6.84662 0.280762Z" fill="#FAA61A"/>
</g>
<defs>
<clipPath id="clip0_604_7933">
<rect width="52" height="16" fill="white"/>
</clipPath>
</defs>
</svg>
