<svg width="24" height="24" viewBox="0 0 24 24" fill="none" xmlns="http://www.w3.org/2000/svg">
<path d="M12 23.9666C5.38162 23.9666 0 18.6184 0 12C0 5.38162 5.38162 0 12 0C18.6184 0 24 5.38162 24 12C23.9666 18.6184 18.6184 23.9666 12 23.9666Z" fill="#FF0000"/>
<path d="M19.187 8.35615C19.0198 7.72105 18.5184 7.18623 17.8499 7.0191C16.68 6.71826 12.0002 6.71826 12.0002 6.71826C12.0002 6.71826 7.32053 6.71826 6.1506 7.0191C5.51549 7.18623 5.01409 7.68762 4.81353 8.35615C4.5127 9.52607 4.5127 11.9996 4.5127 11.9996C4.5127 11.9996 4.5127 14.4397 4.81353 15.6431C4.98067 16.2782 5.48207 16.813 6.1506 16.9801C7.32053 17.281 12.0002 17.281 12.0002 17.281C12.0002 17.281 16.68 17.281 17.8499 16.9801C18.485 16.813 18.9864 16.3116 19.187 15.6431C19.4878 14.4732 19.4878 11.9996 19.4878 11.9996C19.4878 11.9996 19.4878 9.52607 19.187 8.35615Z" fill="white"/>
<path d="M10.4629 14.2057V9.76001L14.3738 11.9996L10.4629 14.2057Z" fill="#FF0000"/>
</svg>
